HIERARCHY
ROOT Hips
{
  OFFSET 3.13124 94.3669 -3.18751
  CHANNELS  6 Xposition Yposition Zposition Zrotation Xrotation Yrotation
  JOINT LeftUpLeg
  {
    OFFSET 8.64259 1.95398 -2.38835
    CHANNELS 3 Zrotation Xrotation Yrotation
    JOINT LeftLeg
    {
      OFFSET 43.7702 0 0
      CHANNELS 3 Zrotation Xrotation Yrotation
      JOINT LeftFoot
      {
        OFFSET 40.6238 0 0
        CHANNELS 3 Zrotation Xrotation Yrotation
        JOINT LeftToeBase
        {
          OFFSET 12.7242 0 0
          CHANNELS 3 Zrotation Xrotation Yrotation
          End Site
          {
            OFFSET 0 0 0
          }
        }
      }
    }
  }
  JOINT RightUpLeg
  {
    OFFSET -8.2249 1.95398 -2.59336
    CHANNELS 3 Zrotation Xrotation Yrotation
    JOINT RightLeg
    {
      OFFSET 43.5653 0 0
      CHANNELS 3 Zrotation Xrotation Yrotation
      JOINT RightFoot
      {
        OFFSET 40.6238 0 0
        CHANNELS 3 Zrotation Xrotation Yrotation
        JOINT RightToeBase
        {
          OFFSET 12.7242 0 0
          CHANNELS 3 Zrotation Xrotation Yrotation
          End Site
          {
            OFFSET 0 0 0
          }
        }
      }
    }
  }
  JOINT Spine
  {
    OFFSET 0.165834 0.87714 6.61349
    CHANNELS 3 Zrotation Xrotation Yrotation
    JOINT Spine1
    {
      OFFSET 7.38962 1.71661e-005 0
      CHANNELS 3 Zrotation Xrotation Yrotation
      JOINT Spine2
      {
        OFFSET 11.9445 1.14441e-005 0
        CHANNELS 3 Zrotation Xrotation Yrotation
        JOINT Spine3
        {
          OFFSET 14.7254 4.19617e-005 0
          CHANNELS 3 Zrotation Xrotation Yrotation
          JOINT Spine4
          {
            OFFSET 10.9679 0 0
            CHANNELS 3 Zrotation Xrotation Yrotation
            JOINT RightShoulder
            {
              OFFSET 2.46616 -1.6653 3.69651
              CHANNELS 3 Zrotation Xrotation Yrotation
              JOINT RightArm
              {
                OFFSET 13.0012 0 0
                CHANNELS 3 Zrotation Xrotation Yrotation
                JOINT RightForeArm
                {
                  OFFSET 28.7848 1.52588e-005 0
                  CHANNELS 3 Zrotation Xrotation Yrotation
                  JOINT RightHand
                  {
                    OFFSET 26.5688 1.52588e-005 0
                    CHANNELS 3 Zrotation Xrotation Yrotation
                    End Site
                    {
                      OFFSET 0 0 0
                    }
                  }
                }
              }
            }
            JOINT LeftShoulder
            {
              OFFSET 2.38034 -1.29275 -3.75231
              CHANNELS 3 Zrotation Xrotation Yrotation
              JOINT LeftArm
              {
                OFFSET 16.3182 6.10352e-005 0
                CHANNELS 3 Zrotation Xrotation Yrotation
                JOINT LeftForeArm
                {
                  OFFSET 27.0901 0 0
                  CHANNELS 3 Zrotation Xrotation Yrotation
                  JOINT LeftHand
                  {
                    OFFSET 24.5451 1.52588e-005 0
                    CHANNELS 3 Zrotation Xrotation Yrotation
                    End Site
                    {
                      OFFSET 0 0 0
                    }
                  }
                }
              }
            }
            JOINT Neck
            {
              OFFSET 5.0226 -0.0266342 0
              CHANNELS 3 Zrotation Xrotation Yrotation
              JOINT Head
              {
                OFFSET 6.69363 2.86102e-005 0
                CHANNELS 3 Zrotation Xrotation Yrotation
                End Site
                {
                  OFFSET 0 0 0
                }
              }
            }
          }
        }
      }
    }
  }
}
MOTION
Frames:	18
Frame Time:	0.0333333
-27.0878 86.4108 -1.9646 137.152 59.5094 56.7961 -169.138 -3.76093 102.728 -46.9319 9.9008 22.0603 85.1188 -7.98431 -2.30203 28.7808 6.83373e-006 -7.31106e-006 -161.501 47.8241 61.1513 -97.0131 9.17043 -1.03016 32.1738 7.73056 8.98854 28.7808 1.30174e-005 1.10656e-005 0.962806 9.84149 -88.9259 7.26023 1.78259 -1.63644 -4.41057 1.7112 -1.71254 -26.9518 2.17585 -1.03018 -6.93912 2.17585 -1.0302 86.2218 -39.5682 -110.111 20.5971 29.7271 14.8013 99.298 -29.0857 -86.262 48.2256 22.2263 41.3932 -110.414 -59.4758 53.6841 -36.0627 1.05214 -52.7845 3.81707 44.2307 -4.89419 74.9181 -35.993 -48.4452 -6.06568 -18.5625 41.3254 -33.4062 -4.37172 -60.0123 
-25.8576 86.1248 -3.02326 130.215 59.4506 60.7316 -169.899 -3.50894 100.55 -45.0326 7.85423 20.0305 85.4565 -8.52722 -2.44318 28.7808 6.83373e-006 -7.31106e-006 -165.361 45.3045 66.1369 -96.6366 7.82383 -1.07773 34.5653 10.4926 11.2731 28.7808 1.30174e-005 1.10656e-005 0.70644 9.24253 -89.5237 8.4348 1.05956 -2.70867 -3.2386 0.938491 -2.75446 -25.7605 1.83027 -2.25285 -5.74787 1.83024 -2.25289 84.5527 -25.1811 -120.037 22.2492 25.6244 15.1954 95.7735 -29.974 -87.8824 43.5586 17.2587 35.9692 -118.342 -66.2809 47.0169 -39.1034 1.12576 -44.5488 3.43788 37.9634 -4.50364 72.3151 -35.5982 -50.4903 -8.54891 -18.6692 53.0433 -30.8766 -3.91681 -66.5076 
-24.5644 86.2023 -3.83045 121.437 60.5532 66.6215 -171.052 -1.68865 98.7593 -42.2553 6.59051 18.3174 84.7479 -9.04262 -2.68727 28.7808 6.83373e-006 -7.31106e-006 -167.98 42.7319 68.1714 -90.4769 1.32486 -1.30757 38.7122 7.85167 8.01285 28.7808 1.30174e-005 1.10656e-005 0.199774 9.03834 -89.5622 8.80437 0.14385 -2.27539 -2.86858 0.0436394 -2.2811 -25.3896 0.820314 -2.11638 -5.37697 0.820301 -2.11641 85.4028 -20.8707 -121.069 25.3017 17.8309 12.2141 93.1894 -32.2274 -88.9511 42.1387 13.065 27.4265 -106.556 -65.57 60.9381 -48.0382 6.4951 -37.451 2.07401 -10.1192 -3.21129 -3.56579 1.35265 -101.822 -2.6946 -14.7469 53.1532 -30.5593 -3.64798 -63.951 
-23.2175 86.419 -4.43415 113.247 61.6232 72.5459 -171.877 0.114239 97.7101 -39.4439 6.05323 17.2504 83.5803 -9.51206 -2.9815 28.7808 6.83373e-006 -7.31106e-006 -171.002 39.7214 70.3816 -80.0519 4.5648 -0.837773 42.4143 9.75892 9.02728 28.7808 1.30174e-005 1.10656e-005 0.0723144 8.78166 -90.0148 9.30279 -0.254901 -2.66082 -2.37085 -0.372017 -2.6479 -24.8846 0.558479 -2.60854 -4.87197 0.558458 -2.60859 87.3278 -16.0565 -119.925 25.8094 16.2399 11.496 94.3178 -32.0816 -88.3647 40.4387 13.1699 29.2619 -108.248 -67.4102 59.5245 -49.9364 7.51899 -23.6155 -3.50932 -20.5963 -18.1616 -20.1303 15.9373 -88.64 -0.425367 -13.4044 57.6 -30.1885 -3.69581 -66.0641 
-21.6777 86.7718 -4.83375 106.417 61.8532 77.7797 -172.14 0.972088 97.5615 -36.1861 5.84069 16.1976 81.9698 -10.187 -3.41998 28.7808 6.83373e-006 -7.31106e-006 -174.028 36.4438 72.3209 -66.9163 7.98029 -0.334064 43.8498 8.99611 8.09914 28.7808 1.30174e-005 1.10656e-005 -0.120503 8.81873 -90.2481 9.22067 -0.551637 -2.52135 -2.45256 -0.662036 -2.49465 -24.9681 0.231362 -2.57108 -4.95548 0.231369 -2.5711 88.855 -16.3499 -116.15 25.861 16.1209 11.1252 93.874 -35.1343 -88.2687 37.7997 12.9096 31.0244 -104.826 -66.2577 63.2824 -52.5301 15.5665 -7.04525 -24.4091 -25.5403 -51.7468 -25.0431 14.8044 -73.7409 3.65968 -10.9517 58.2245 -30.2878 -3.35861 -66.5422 
-19.8524 87.1595 -5.06074 101.027 61.0099 81.5971 -172.157 0.753768 97.6408 -32.5654 5.26357 14.8029 79.7459 -10.6343 -3.87438 28.7808 6.83373e-006 -7.31106e-006 -177.198 32.3481 74.2267 -51.2006 11.4205 0.190471 45.8801 8.3228 7.22099 28.7808 1.30174e-005 1.10656e-005 -0.311677 8.96001 -90.4629 8.93431 -0.87662 -2.23095 -2.73819 -0.973948 -2.19024 -25.2582 -0.165824 -2.39118 -5.24556 -0.165825 -2.3912 89.6019 -18.7346 -112.919 25.5739 16.8896 10.8137 94.747 -36.2336 -88.16 37.992 12.8359 32.5289 -101.182 -64.7164 67.3022 -63.5747 13.2055 -28.5791 1.92282 -19.9281 -2.8928 -10.828 11.4809 -107.966 7.61351 -8.05992 58.1417 -30.1923 -2.71451 -66.4419 
-17.5893 87.2824 -5.01279 94.5949 58.9938 86.3497 -172.081 1.24133 98.0149 -29.4818 3.35261 12.9666 77.5244 -11.4946 -4.52881 28.7808 6.83373e-006 -7.31106e-006 -179.88 29.5752 76.6881 -36.31 10.9099 0.394178 44.7881 8.49399 7.52302 28.7808 1.30174e-005 1.10656e-005 -0.362508 9.09482 -90.6226 8.66811 -0.953673 -2.01012 -3.00399 -1.04122 -1.96623 -25.5271 -0.30564 -2.20371 -5.51448 -0.305644 -2.20373 90.0856 -22.0414 -110.028 21.3947 29.6112 -23.4168 138.85 -1.74448 -91.1482 8.9449 13.9999 110.777 -99.0538 -62.8933 69.4719 -65.2243 16.8322 -31.2088 2.44151 8.20858 -3.48564 32.6942 -33.3645 -94.6185 11.5427 -5.24013 57.5936 -29.7847 -2.55247 -65.6011 
-14.7269 87.1074 -4.82096 88.8893 55.7469 90.8335 -171.692 2.06695 99.0282 -27.9821 1.27317 11.811 75.2116 -13.2326 -5.63607 28.7808 6.83373e-006 -7.31106e-006 179.677 29.4833 80.6954 -31.6404 19.3867 0.985352 52.9839 4.60197 3.5739 28.7808 1.30174e-005 1.10656e-005 -0.302187 9.21369 -90.7817 8.43246 -0.865251 -2.15124 -3.23992 -0.959073 -2.11109 -25.761 -0.179012 -2.31157 -5.74839 -0.17902 -2.31157 90.6485 -23.2897 -108.167 24.4516 19.2721 16.1776 99.9585 -36.4126 -84.3432 46.3764 16.9382 28.3714 -98.3868 -61.577 69.9618 -61.0527 17.5556 -38.1991 2.74231 19.9069 -3.79763 73.2921 -48.1357 -64.0135 14.2339 -2.78188 58.577 -28.7069 -2.64742 -65.6213 
-12.1632 86.7194 -4.55047 83.2564 53.3165 94.5431 -172.464 4.22557 99.0457 -28.3994 -0.76552 11.3926 72.8926 -14.1503 -6.45188 28.7808 6.83373e-006 -7.31106e-006 179.843 32.0896 82.1842 -31.5779 18.359 0.916774 59.7121 2.08265 1.44448 28.7808 1.30174e-005 1.10656e-005 -0.438023 9.24572 -90.7715 8.36547 -1.07996 -2.06629 -3.30659 -1.17001 -2.0169 -25.8293 -0.408026 -2.29775 -5.81668 -0.408048 -2.29779 89.8999 -26.3276 -108.461 32.4501 -7.02293 20.2273 34.7351 -29.4475 -124.148 22.575 -3.42289 -22.4296 -98.0728 -60.054 69.939 -56.1295 15.7125 -42.3875 3.16694 31.8696 -4.2343 110.406 -42.6632 -33.3999 15.5584 -1.02717 58.2315 -26.9895 -3.13293 -64.0188 
-9.1957 86.4539 -4.25486 79.6143 49.539 96.8087 -173.037 6.60327 99.4166 -31.7543 -2.53443 11.5931 68.9058 -15.3364 -7.79824 28.7808 6.83373e-006 -7.31106e-006 -179.883 35.8738 84.4282 -34.1773 15.5243 0.698211 60.8718 0.76892 0.590418 28.7808 1.30174e-005 1.10656e-005 -0.322339 9.38118 -90.6122 8.09927 -0.766481 -1.98879 -3.57293 -0.853645 -1.95308 -26.0959 -0.130944 -2.12751 -6.08329 -0.130943 -2.12754 89.5841 -31.1477 -107.154 34.9167 -16.5333 11.9114 13.4944 -11.5088 -124.714 -5.80368 1.13844 -32.437 -100.047 -58.3622 66.805 -51.8513 12.798 -44.3237 3.51862 39.2534 -4.59128 128.869 -26.9273 -16.7036 16.2245 -0.145726 57.4465 -25.9621 -3.412 -62.7789 
-5.88281 86.5322 -4.5066 79.5441 46.0622 96.3185 -173.454 7.66303 99.6108 -37.0738 -4.83846 12.1015 62.3517 -14.8932 -8.81899 28.7808 6.83373e-006 -7.31106e-006 179.969 35.5221 86.607 -34.521 13.2562 0.54674 64.0017 0.718174 0.467535 28.7808 1.30174e-005 1.10656e-005 -0.335532 9.67636 -90.4464 7.50489 -0.758999 -2.05018 -4.16742 -0.848511 -2.01487 -26.6897 -0.107721 -2.18314 -6.67709 -0.10774 -2.18318 89.8385 -30.9538 -106.7 34.2325 -17.3485 9.33206 15.3029 -12.7906 -124.706 -11.6319 2.22541 -27.8286 -101.528 -57.4345 64.5269 -48.3226 10.0103 -45.3524 4.01291 47.0318 -5.09195 136.369 -7.22588 -7.05329 15.565 1.21871 58.2528 -25.475 -2.37614 -61.8729 
-2.61833 86.6343 -4.70518 79.049 43.4515 95.8049 -174.791 10.5875 98.7788 -44.322 -6.29052 13.6003 53.5546 -11.5538 -8.80018 28.7808 6.83373e-006 -7.31106e-006 179.898 35.5496 88.126 -36.0964 11.5032 0.411512 66.6189 0.370007 0.200615 28.7808 1.30174e-005 1.10656e-005 -0.33001 9.74201 -90.1825 7.39388 -0.674577 -2.29275 -4.27892 -0.774826 -2.26088 -26.7976 0.0454633 -2.38945 -6.78502 0.04544 -2.38948 90.9484 -28.3746 -105.448 35.9462 -19.115 4.68332 8.58957 -6.09673 -117.471 -17.8518 4.42685 -33.8706 -105.18 -58.5973 60.0984 -45.6148 7.49525 -45.3284 3.86568 44.9654 -4.94317 138.331 -2.25529 -5.14595 13.2924 0.138387 60.8377 -28.5626 -0.854073 -62.5871 
-1.04306 84.764 -4.85178 77.5988 40.9533 98.5902 -172.553 9.3183 101.182 -35.3816 -38.6889 3.69456 70.1923 9.06344 4.7297 28.7808 6.83373e-006 -7.31106e-006 179.016 39.6568 91.8227 -42.3782 10.371 0.350854 70.2118 0.557867 0.175021 28.7808 1.30174e-005 1.10656e-005 0.135342 9.70655 -92.4106 7.46227 -0.385404 -2.56531 -4.21114 -0.497971 -2.5459 -26.726 0.40378 -2.56237 -6.71341 0.403775 -2.56238 93.0853 -24.2683 -102.423 34.4907 -18.7068 7.67239 12.0796 -10.2543 -124.041 -17.4665 2.63782 -22.9431 -109.748 -59.9647 54.7414 -41.5517 4.70482 -47.8404 4.36317 51.2852 -5.44544 140.421 6.28708 -2.21527 10.1626 -1.01082 62.4759 -28.4394 -0.550692 -63.2447 
2.03559 85.8517 -5.64151 77.9532 38.2128 97.4849 -174.112 12.6798 99.219 -43.6276 -39.785 3.83655 66.5838 12.108 6.60107 28.7808 6.83373e-006 -7.31106e-006 179.026 36.9598 92.8324 -40.4926 7.94847 0.195564 70.4206 -0.239066 -0.220476 28.7808 1.30174e-005 1.10656e-005 0.256599 9.85052 -91.9492 7.16228 -0.0532404 -2.73135 -4.51149 -0.172239 -2.72595 -27.0253 0.760538 -2.62416 -7.01266 0.760526 -2.62419 94.978 -19.9128 -99.7311 32.3773 -22.1014 2.29777 11.6133 -11.1798 -127.148 -29.9951 2.30864 -13.9594 -114.678 -61.5388 49.244 -37.6846 1.84224 -50.2362 4.88046 56.2583 -5.9664 138.564 14.6666 0.899989 8.35442 -1.85989 63.639 -28.2612 -0.61745 -63.5529 
4.8744 86.8594 -6.52993 78.4206 35.8147 96.5746 -174.981 15.8276 97.367 -49.5687 -40.0113 2.73986 66.1221 11.9046 6.56128 28.7808 6.83373e-006 -7.31106e-006 179.149 34.3292 93.6326 -38.99 6.38918 0.110244 69.9518 -0.519785 -0.354052 28.7808 1.30174e-005 1.10656e-005 0.190223 10.0984 -91.2712 6.67809 0.00709057 -2.32757 -4.99495 -0.0950674 -2.32532 -27.5148 0.6991 -2.22034 -7.50212 0.699109 -2.22035 95.2236 -20.8689 -98.6883 31.111 -19.8738 -1.08883 11.8245 -11.1498 -126.697 -31.1981 2.13854 -13.0054 -113.701 -61.7171 50.5343 -35.2413 0.435796 -53.5299 4.33221 50.9409 -5.41454 135.195 16.0085 1.91782 9.52454 -0.660989 62.0574 -29.0141 0.511131 -62.6214 
7.40441 87.6557 -7.48989 78.1142 34.1073 96.1529 -176.824 20.0055 94.9614 -53.1388 -40.9738 2.23236 65.4448 11.4569 6.38554 28.7808 6.83373e-006 -7.31106e-006 179.256 32.7801 93.9274 -38.4196 5.15777 0.0450337 69.2861 -0.24713 -0.207165 28.7808 1.30174e-005 1.10656e-005 0.280442 10.0826 -91.1687 6.7071 0.219514 -2.51489 -4.96625 0.108646 -2.5221 -27.4844 0.964984 -2.33011 -7.4718 0.964995 -2.33014 96.2936 -16.5596 -97.3965 29.6932 -17.2085 -1.35426 16.0195 -15.5601 -128.86 -32.8393 1.37338 -9.93519 -119.196 -63.1757 44.5081 -33.1842 -1.33577 -54.7084 4.04527 47.4791 -5.12361 130.744 18.2487 3.6042 6.84657 -2.3935 63.5954 -28.6737 0.111172 -63.6639 
9.82439 88.0213 -8.43577 77.5828 32.415 96.2637 -178.006 24.0531 93.2781 -53.2482 -45.6052 1.07576 69.5743 12.6514 6.62043 28.7808 6.83373e-006 -7.31106e-006 179.179 32.075 94.6055 -39.0556 4.06966 -0.01767 69.0851 0.140581 -0.00340907 28.7808 1.30174e-005 1.10656e-005 0.519078 10.0196 -91.3915 6.8329 0.519748 -2.60839 -4.8406 0.404494 -2.62872 -27.359 1.27946 -2.3322 -7.34635 1.27945 -2.33221 96.5921 -14.5889 -97.2427 29.5079 -12.1595 1.46497 18.6455 -18.19 -129.344 -29.0027 0.639981 -7.72843 -123.357 -63.5341 39.7315 -32.4148 -1.81632 -55.9911 3.29119 34.7256 -4.36016 129.5 13.1678 1.56933 4.66034 -4.22285 63.8395 -28.5434 -0.534907 -63.5815 
12.4357 88.1342 -9.45983 77.4972 30.6131 96.3835 -178.703 27.3802 91.9091 -50.8535 -46.0786 0.0976107 72.5347 11.1074 5.53172 28.7808 6.83373e-006 -7.31106e-006 179.071 30.9581 95.5361 -39.9596 3.00589 -0.0792956 69.5605 0.269065 0.0574918 28.7808 1.30174e-005 1.10656e-005 0.819436 9.96173 -91.7075 6.94257 0.893146 -2.7166 -4.73099 0.77276 -2.75324 -27.251 1.6681 -2.32165 -7.23831 1.66809 -2.32168 96.5816 -13.1833 -97.7422 30.3228 -9.70494 3.92323 14.7098 -14.0406 -128.078 -26.1871 0.0804895 -5.56409 -126.358 -63.5737 36.2324 -32.2478 -1.63817 -57.2188 2.9071 25.0403 -3.96818 127.692 7.02092 -1.05321 2.57218 -5.44108 64.2207 -28.0263 -0.928883 -63.4409 
